# xmcd CD database file
#
# Track frame offsets:
#	150
#	19827
#	39459
#	54155
#	82648
#	108712
#	129750
#	149021
#	176376
#	200332
#	228990
#
# Disc length: 3394 seconds
#
# Revision: 0
# Processed by: cddbd v1.5.2PL0 Copyright (c) Steve Scherf et al.
# Submitted via: CDex 1.70beta2
#
DISCID=840d400b
DTITLE=Robben Ford - Truth
DYEAR=2007
DGENRE=Blues
TTITLE0=Lateral Climb
TTITLE1=How Deep In The Blues (Do You Want To Go)
TTITLE2=Nobody's Fault But Mine
TTITLE3=Riley B. King
TTITLE4=You're Gonna Need A Friend
TTITLE5=One Man's Ceiling Is Another Man's Floor
TTITLE6=Too Much
TTITLE7=Peace On My Mind
TTITLE8=There'll Never Be Another You
TTITLE9=River Of Soul
TTITLE10=Moonchild Blues
EXTD=YEAR: 2007
EXTT0=
EXTT1=
EXTT2=
EXTT3=
EXTT4=
EXTT5=
EXTT6=
EXTT7=
EXTT8=
EXTT9=
EXTT10=
PLAYORDER=
